Coordinates
version=1
nRows=24
nColumns=24
inDegrees=yes

Units are S.I. units (second, meters, Newtons, ...)
Angles are in degrees.

endheader
time	pelvis_tilt	pelvis_list	pelvis_rotation	pelvis_tx	pelvis_ty	pelvis_tz	hip_flexion_r	hip_adduction_r	hip_rotation_r	knee_angle_r	ankle_angle_r	subtalar_angle_r	mtp_angle_r	hip_flexion_l	hip_adduction_l	hip_rotation_l	knee_angle_l	ankle_angle_l	subtalar_angle_l	mtp_angle_l	lumbar_extension	lumbar_bending	lumbar_rotation
      1.00900000	      0.46126051	      1.13593732	      0.23346316	     -0.09363426	      1.05464395	      0.34516289	    -16.55951224	      2.14947275	     -4.82473332	     -6.39448907	     17.44583250	      4.52894392	      5.34111656	     22.67754834	      1.05989127	     -3.41552413	     -1.45343822	      5.72934921	      7.36101206	      5.87098292	    -13.17104998	      1.92755307	      2.62458014
      1.01316667	      0.51589916	      1.14557258	      0.11042641	     -0.08772817	      1.05390984	      0.34515518	    -16.75375526	      2.06817097	     -4.81655615	     -6.82978627	     17.55997632	      4.66250351	      5.39746465	     22.65057541	      1.12975900	     -3.26971921	     -1.66422434	      5.73745343	      7.37071334	      5.87173533	    -13.21788144	      1.83389989	      2.66528742
      1.01733333	      0.55759232	      1.17702708	     -0.01589934	     -0.08175765	      1.05319292	      0.34513674	    -16.90997469	      1.95095757	     -4.89596682	     -7.32029990	     17.68699576	      5.03612058	      5.51867301	     22.62572330	      1.22226227	     -3.09215432	     -1.92306900	      5.68735126	      7.37101359	      5.88290605	    -13.27646825	      1.69377170	      2.77229883
      1.02150000	      0.61642587	      1.21788845	     -0.13941793	     -0.07575605	      1.05253650	      0.34513017	    -17.08800219	      1.82760303	     -4.92010992	     -7.80701771	     17.77283910	      5.26178935	      5.64258023	     22.58950321	      1.32418675	     -2.91492393	     -2.26261098	      5.62437423	      7.33822889	      5.90438313	    -13.33691502	      1.54556805	      2.81366595
      1.02566667	      0.65804817	      1.25286716	     -0.26386790	     -0.06971090	      1.05189439	      0.34511001	    -17.23315210	      1.70606847	     -4.95314891	     -8.32424518	     17.81836343	      5.46673602	      5.77422997	     22.57809844	      1.42014426	     -2.74065544	     -2.67555637	      5.52529327	      7.26560304	      5.93423677	    -13.35200509	      1.41076634	      2.87531843
      1.02983333	      0.68552327	      1.29399107	     -0.38077021	     -0.06362461	      1.05127928	      0.34509422	    -17.38190300	      1.58665231	     -4.86797109	     -8.80010222	     17.74837169	      5.52405779	      5.81170923	     22.58798356	      1.52164801	     -2.55923527	     -3.15432588	      5.38475923	      7.24634186	      5.94348725	    -13.39066400	      1.27780945	      2.87779366
      1.03400000	      0.76584300	      1.36615308	     -0.50196200	     -0.05749483	      1.05077159	      0.34504631	    -17.53100063	      1.40755664	     -5.04122147	     -9.40554011	     17.82726930	      6.01424122	      6.10613542	     22.51154646	      1.66119216	     -2.30228501	     -3.62052517	      5.15731390	      7.02841306	      6.02746497	    -13.45258896	      1.07893586	      2.98963648
      1.03816667	      0.79605436	      1.44733597	     -0.62469156	     -0.05129106	      1.05023259	      0.34503426	    -17.63891626	      1.22873757	     -5.06172307	     -9.98654767	     17.82544386	      6.22541423	      6.39572402	     22.49233840	      1.80435200	     -2.06181536	     -4.14105078	      4.92508382	      6.84903885	      6.11423499	    -13.44427075	      0.85199993	      3.01029729
      1.04233333	      0.82243718	      1.51116632	     -0.72661145	     -0.04508292	      1.04972007	      0.34495592	    -17.72608589	      1.06693870	     -5.12882282	    -10.59888318	     17.74265496	      6.47427594	      6.75102986	     22.49294723	      1.93773717	     -1.79109675	     -4.72440373	      4.64766266	      6.61743345	      6.22095891	    -13.43541160	      0.67867546	      3.05274783
      1.04650000	      0.89696420	      1.57837388	     -0.82893855	     -0.03889076	      1.04933518	      0.34485215	    -17.85287878	      0.89524095	     -5.19442918	    -11.23065254	     17.66115342	      6.75625428	      7.43072368	     22.44134524	      2.07766545	     -1.49742801	     -5.33424411	      4.32514056	      6.29252224	      6.42041694	    -13.49868506	      0.51762155	      3.07376021
      1.05066667	      0.98448688	      1.67922988	     -0.94275953	     -0.03261498	      1.04903882	      0.34482394	    -17.99790676	      0.69118231	     -5.19587301	    -11.84731229	     17.42082346	      6.83327331	     10.25580043	     22.35696311	      2.24053289	     -1.25153340	     -5.93204738	      3.91973919	      5.99844514	      7.20143731	    -13.56168346	      0.28430641	      3.00223585
      1.05483333	      0.93555667	      1.74335061	     -1.03746547	     -0.02627037	      1.04854159	      0.34471256	    -17.96618611	      0.52397717	     -5.21151378	    -12.53679137	     17.21916079	      6.98635448	     10.32836127	     22.47439829	      2.36260280	     -1.08074119	     -6.67566438	      3.63721092	      5.88563069	      7.21053506	    -13.42874548	      0.08891473	      3.06371888
      1.05900000	      0.97418029	      1.84839075	     -1.14076364	     -0.01992485	      1.04825214	      0.34460598	    -17.99987270	      0.29646267	     -5.31160393	    -13.28351589	     17.02954020	      7.29284139	     10.46867371	     22.46528175	      2.52787818	     -0.86335825	     -7.36577575	      3.25143944	      5.59188912	      7.22225890	    -13.41558460	     -0.14996903	      3.08174590
      1.06316667	      1.01589826	      1.92883594	     -1.22070004	     -0.01362867	      1.04798989	      0.34441167	    -18.01017977	      0.09357951	     -5.43174347	    -14.07999408	     16.85087057	      7.60216554	     10.75499099	     22.46960353	      2.68111782	     -0.57608693	     -8.09927163	      2.87646763	      5.17759054	      7.24310666	    -13.42138306	     -0.33051301	      3.07574493
      1.06733333	      1.09736623	      2.04236786	     -1.29735675	     -0.00728105	      1.04786500	      0.34422985	    -18.05448756	     -0.14742987	     -5.56716278	    -14.88820928	     16.52113804	      7.82374942	     12.25006633	     22.39867129	      2.86899169	     -0.25618758	     -8.77287803	      2.41416089	      4.70208725	      7.32733329	    -13.47287383	     -0.57276937	      3.01639118
      1.07150000	      1.09309161	      2.11971503	     -1.39761801	     -0.00090348	      1.04763992	      0.34403443	    -17.96679610	     -0.36921727	     -5.66972392	    -15.76882999	     16.21396443	      8.20570738	     12.70621042	     22.48459571	      2.99374724	     -0.14292603	     -9.61250075	      2.16349742	      4.46572749	      7.32792786	    -13.39754930	     -0.75674109	      3.04445398
      1.07566667	      1.12559627	      2.22040898	     -1.46828837	      0.00548440	      1.04753826	      0.34378330	    -17.89993991	     -0.61443613	     -5.83129744	    -16.68665879	     15.82575097	      8.51268531	     13.48386365	     22.49036846	      3.16203941	      0.11494284	    -10.36379518	      1.78645294	      4.03973226	      7.29572335	    -13.37765491	     -0.96796100	      3.01148916
      1.07983333	      1.07818798	      2.29850322	     -1.54531845	      0.01192994	      1.04735231	      0.34355677	    -17.73013724	     -0.83248237	     -5.90330666	    -17.62911710	     15.38873225	      8.71953957	     13.65913886	     22.62331135	      3.28182207	      0.19781618	    -11.21900038	      1.49842613	      3.86405590	      7.27906209	    -13.23566251	     -1.17559889	      3.00037141
      1.08400000	      1.11418280	      2.38294887	     -1.61540596	      0.01828662	      1.04734692	      0.34324574	    -17.60083848	     -1.08062047	     -6.07176983	    -18.65582109	     14.90553328	      9.01790476	     17.41036167	     22.63679215	      3.42883299	      0.41178090	    -12.01079342	      1.19839307	      3.43711148	      6.91358327	    -13.21844721	     -1.34450413	      2.96498778
      1.08816667	      1.13873771	      2.48784636	     -1.68886959	      0.02469267	      1.04735722	      0.34294541	    -17.42979354	     -1.36165038	     -6.26112178	    -19.74553504	     14.44747908	      9.38814326	     17.48488048	     22.67532692	      3.58037121	      0.49266470	    -12.84181853	      1.00125353	      3.23441824	      6.89548067	    -13.18507436	     -1.56651063	      2.95572219
      1.09233333	      1.14407027	      2.57432566	     -1.75631739	      0.03108475	      1.04738490	      0.34259953	    -17.20563732	     -1.63069291	     -6.43907975	    -20.88676773	     13.93641499	      9.76247121	     17.62515831	     22.72408968	      3.71732567	      0.61055767	    -13.65589646	      0.81056196	      2.96160780	      6.86191035	    -13.12536554	     -1.75109563	      2.93443999
      1.09650000	      1.17594893	      2.67516936	     -1.82385862	      0.03746411	      1.04750648	      0.34224712	    -16.97937939	     -1.92607680	     -6.63075122	    -22.07776110	     13.39143902	     10.16536070	     17.84588191	     22.72972424	      3.86908447	      0.71769249	    -14.44337710	      0.64450824	      2.68148988	      6.80862505	    -13.10038444	     -1.95668351	      2.90788778
      1.10066667	      1.17398559	      2.75739502	     -1.88467143	      0.04383478	      1.04760328	      0.34185279	    -16.68280489	     -2.20881081	     -6.80713302	    -23.32329160	     12.79658372	     10.53865468	     18.14663708	     22.76798996	      4.00133332	      0.81473427	    -15.22797709	      0.52650047	      2.43193151	      6.73505747	    -13.03365962	     -2.13053644	      2.88060597
      1.10483333	      1.21640282	      2.85325843	     -1.94865287	      0.05018174	      1.04782569	      0.34146201	    -16.40431267	     -2.51733191	     -6.99063792	    -24.60984356	     12.14011126	     10.91665793	     18.47942962	     22.73452362	      4.14685643	      0.88946422	    -15.96376635	      0.44452362	      2.22366201	      6.65128561	    -13.01822177	     -2.31726218	      2.85293139
